0
SECTION
2
HEADER
9
$INSUNITS
70
4
0
ENDSEC
0
SECTION
2
TABLES
0
TABLE
2
LTYPE
0
LTYPE
72
65
70
64
2
CONTINUOUS
3
______
73
0
40
0
0
ENDTAB
0
TABLE
2
LAYER
0
ENDTAB
0
ENDSEC
0
SECTION
2
ENTITIES
0
LINE
8
0
10
91.2061908
20
-109.2817618
11
84.2289808
21
-59.6363321
0
LINE
8
0
10
85.1919259
20
-57.6362111
11
104.2432226
21
-46.3766499
0
LINE
8
0
10
104.6230722
20
-46.2028282
11
125.5221895
21
-39.1716724
0
LINE
8
0
10
126.1599309
20
-39.0672688
11
145.645281
21
-39.0672688
0
LINE
8
0
10
146.0164946
20
-39.1020206
11
163.7415326
21
-42.4500833
0
LINE
8
0
10
163.9246942
20
-42.4759747
11
181.7386975
21
-44.1584083
0
LINE
8
0
10
181.9267495
20
-44.1672688
11
205.6125145
21
-44.1672688
0
LINE
8
0
10
207.6125145
20
-46.1672688
11
207.6125145
21
-109.2071505
0
LINE
8
0
10
208.3616893
20
-110.7677389
11
211.5245117
21
-113.3027686
0
LINE
8
0
10
212.1007774
20
-115.6768302
11
205.8238732
21
-129.774988
0
LINE
8
0
10
203.1606734
20
-130.7783589
11
188.9641014
21
-124.2451177
0
LINE
8
0
10
188.7220514
20
-124.1522251
11
171.8577019
21
-118.9062584
0
LINE
8
0
10
171.5724889
20
-118.8399854
11
153.9860056
21
-116.0912591
0
LINE
8
0
10
153.6771598
20
-116.0672688
11
133.9562459
21
-116.0672688
0
LINE
8
0
10
133.7097265
20
-116.0520177
11
92.9402075
21
-110.9881645
0
ARC
8
0
10
86.2095169
20
-59.3579859
40
2
50
120.5836323
51
187.9999997
0
ARC
8
0
10
105.2608136
20
-48.0984247
40
2
50
108.5946438
51
120.5836323
0
ARC
8
0
10
126.1599309
20
-41.0672688
40
2
50
90
51
108.5946438
0
ARC
8
0
10
145.645281
20
-41.0672688
40
2
50
79.3034878
51
90
0
ARC
8
0
10
164.1127462
20
-40.4848352
40
2
50
259.3034878
51
264.604737
0
ARC
8
0
10
181.9267495
20
-42.1672688
40
2
50
264.604737
51
270
0
ARC
8
0
10
205.6125145
20
-46.1672688
40
2
50
0
51
90
0
ARC
8
0
10
209.6125145
20
-109.2071505
40
2
50
180
51
231.2875214
0
ARC
8
0
10
210.2736865
20
-114.863357
40
2
50
336.0000032
51
51.2875214
0
ARC
8
0
10
203.9967822
20
-128.9615148
40
2
50
245.2881857
51
336.0000032
0
ARC
8
0
10
188.1279926
20
-126.0619617
40
2
50
65.2881857
51
72.7207304
0
ARC
8
0
10
171.263643
20
-120.815995
40
2
50
72.7207304
51
81.1166717
0
ARC
8
0
10
153.6771598
20
-118.0672688
40
2
50
81.1166717
51
90
0
ARC
8
0
10
133.9562459
20
-114.0672688
40
2
50
262.9197329
51
270
0
ARC
8
0
10
93.1867269
20
-109.0034156
40
2
50
187.9999997
51
262.9197329
0
ENDSEC
0
EOF