0
SECTION
2
HEADER
9
$INSUNITS
70
4
0
ENDSEC
0
SECTION
2
TABLES
0
TABLE
2
LTYPE
0
LTYPE
72
65
70
64
2
CONTINUOUS
3
______
73
0
40
0
0
ENDTAB
0
TABLE
2
LAYER
0
ENDTAB
0
ENDSEC
0
SECTION
2
ENTITIES
0
LINE
8
0
10
352.4588382
20
-109.2817618
11
359.4360482
21
-59.6363321
0
LINE
8
0
10
358.4731031
20
-57.6362111
11
339.4218064
21
-46.3766499
0
LINE
8
0
10
339.0419568
20
-46.2028282
11
318.1428395
21
-39.1716724
0
LINE
8
0
10
317.5050981
20
-39.0672688
11
298.019748
21
-39.0672688
0
LINE
8
0
10
297.6485344
20
-39.1020206
11
279.9234964
21
-42.4500833
0
LINE
8
0
10
279.7403348
20
-42.4759747
11
261.9263315
21
-44.1584083
0
LINE
8
0
10
261.7382795
20
-44.1672688
11
238.0525145
21
-44.1672688
0
LINE
8
0
10
236.0525145
20
-46.1672688
11
236.0525145
21
-109.2071505
0
LINE
8
0
10
235.3033397
20
-110.7677389
11
232.1405173
21
-113.3027686
0
LINE
8
0
10
231.5642516
20
-115.6768302
11
237.8411558
21
-129.774988
0
LINE
8
0
10
240.5043556
20
-130.7783589
11
254.7009276
21
-124.2451177
0
LINE
8
0
10
254.9429776
20
-124.1522251
11
271.8073271
21
-118.9062584
0
LINE
8
0
10
272.0925401
20
-118.8399854
11
289.6790234
21
-116.0912591
0
LINE
8
0
10
289.9878692
20
-116.0672688
11
309.7087831
21
-116.0672688
0
LINE
8
0
10
309.9553025
20
-116.0520177
11
350.7248215
21
-110.9881645
0
ARC
8
0
10
357.4555121
20
-59.3579859
40
2
50
352.0000003
51
59.4163677
0
ARC
8
0
10
338.4042154
20
-48.0984247
40
2
50
59.4163677
51
71.4053562
0
ARC
8
0
10
317.5050981
20
-41.0672688
40
2
50
71.4053562
51
90
0
ARC
8
0
10
298.019748
20
-41.0672688
40
2
50
90
51
100.6965122
0
ARC
8
0
10
279.5522828
20
-40.4848352
40
2
50
275.395263
51
280.6965122
0
ARC
8
0
10
261.7382795
20
-42.1672688
40
2
50
270
51
275.395263
0
ARC
8
0
10
238.0525145
20
-46.1672688
40
2
50
90
51
180
0
ARC
8
0
10
234.0525145
20
-109.2071505
40
2
50
308.7124786
51
0
0
ARC
8
0
10
233.3913425
20
-114.863357
40
2
50
128.7124786
51
203.9999968
0
ARC
8
0
10
239.6682468
20
-128.9615148
40
2
50
203.9999968
51
294.7118143
0
ARC
8
0
10
255.5370364
20
-126.0619617
40
2
50
107.2792696
51
114.7118143
0
ARC
8
0
10
272.401386
20
-120.815995
40
2
50
98.8833283
51
107.2792696
0
ARC
8
0
10
289.9878692
20
-118.0672688
40
2
50
90
51
98.8833283
0
ARC
8
0
10
309.7087831
20
-114.0672688
40
2
50
270
51
277.0802671
0
ARC
8
0
10
350.4783021
20
-109.0034156
40
2
50
277.0802671
51
352.0000003
0
ENDSEC
0
EOF