0
SECTION
2
HEADER
9
$INSUNITS
70
4
0
ENDSEC
0
SECTION
2
TABLES
0
TABLE
2
LTYPE
0
LTYPE
72
65
70
64
2
CONTINUOUS
3
______
73
0
40
0
0
ENDTAB
0
TABLE
2
LAYER
0
ENDTAB
0
ENDSEC
0
SECTION
2
ENTITIES
0
LINE
8
0
10
91.2061908
20
-109.2817618
11
84.2289808
21
-59.6363321
0
LINE
8
0
10
85.1919259
20
-57.6362111
11
104.2432226
21
-46.3766499
0
LINE
8
0
10
104.6230722
20
-46.2028282
11
125.5221895
21
-39.1716724
0
LINE
8
0
10
126.1599309
20
-39.0672688
11
145.645281
21
-39.0672688
0
LINE
8
0
10
146.0164946
20
-39.1020206
11
163.7415326
21
-42.4500833
0
LINE
8
0
10
163.9246942
20
-42.4759747
11
181.7386975
21
-44.1584083
0
LINE
8
0
10
181.9267495
20
-44.1672688
11
205.6125145
21
-44.1672688
0
LINE
8
0
10
207.6125145
20
-46.1672688
11
207.6125145
21
-109.2071505
0
LINE
8
0
10
208.3616893
20
-110.7677389
11
211.5245117
21
-113.3027686
0
LINE
8
0
10
212.1007774
20
-115.6768302
11
205.8238732
21
-129.774988
0
LINE
8
0
10
203.1606734
20
-130.7783589
11
188.9641014
21
-124.2451177
0
LINE
8
0
10
188.7220514
20
-124.1522251
11
171.8577019
21
-118.9062584
0
LINE
8
0
10
171.5724889
20
-118.8399854
11
153.9860056
21
-116.0912591
0
LINE
8
0
10
153.6771598
20
-116.0672688
11
133.9562459
21
-116.0672688
0
LINE
8
0
10
133.7097265
20
-116.0520177
11
92.9402075
21
-110.9881645
0
ARC
8
0
10
86.2095169
20
-59.3579859
40
2
50
120.5836323
51
187.9999997
0
ARC
8
0
10
105.2608136
20
-48.0984247
40
2
50
108.5946438
51
120.5836323
0
ARC
8
0
10
126.1599309
20
-41.0672688
40
2
50
90
51
108.5946438
0
ARC
8
0
10
145.645281
20
-41.0672688
40
2
50
79.3034878
51
90
0
ARC
8
0
10
164.1127462
20
-40.4848352
40
2
50
259.3034878
51
264.604737
0
ARC
8
0
10
181.9267495
20
-42.1672688
40
2
50
264.604737
51
270
0
ARC
8
0
10
205.6125145
20
-46.1672688
40
2
50
0
51
90
0
ARC
8
0
10
209.6125145
20
-109.2071505
40
2
50
180
51
231.2875214
0
ARC
8
0
10
210.2736865
20
-114.863357
40
2
50
336.0000032
51
51.2875214
0
ARC
8
0
10
203.9967822
20
-128.9615148
40
2
50
245.2881857
51
336.0000032
0
ARC
8
0
10
188.1279926
20
-126.0619617
40
2
50
65.2881857
51
72.7207304
0
ARC
8
0
10
171.263643
20
-120.815995
40
2
50
72.7207304
51
81.1166717
0
ARC
8
0
10
153.6771598
20
-118.0672688
40
2
50
81.1166717
51
90
0
ARC
8
0
10
133.9562459
20
-114.0672688
40
2
50
262.9197329
51
270
0
ARC
8
0
10
93.1867269
20
-109.0034156
40
2
50
187.9999997
51
262.9197329
0
LINE
8
0
10
352.4588382
20
-109.2817618
11
359.4360482
21
-59.6363321
0
LINE
8
0
10
358.4731031
20
-57.6362111
11
339.4218064
21
-46.3766499
0
LINE
8
0
10
339.0419568
20
-46.2028282
11
318.1428395
21
-39.1716724
0
LINE
8
0
10
317.5050981
20
-39.0672688
11
298.019748
21
-39.0672688
0
LINE
8
0
10
297.6485344
20
-39.1020206
11
279.9234964
21
-42.4500833
0
LINE
8
0
10
279.7403348
20
-42.4759747
11
261.9263315
21
-44.1584083
0
LINE
8
0
10
261.7382795
20
-44.1672688
11
238.0525145
21
-44.1672688
0
LINE
8
0
10
236.0525145
20
-46.1672688
11
236.0525145
21
-109.2071505
0
LINE
8
0
10
235.3033397
20
-110.7677389
11
232.1405173
21
-113.3027686
0
LINE
8
0
10
231.5642516
20
-115.6768302
11
237.8411558
21
-129.774988
0
LINE
8
0
10
240.5043556
20
-130.7783589
11
254.7009276
21
-124.2451177
0
LINE
8
0
10
254.9429776
20
-124.1522251
11
271.8073271
21
-118.9062584
0
LINE
8
0
10
272.0925401
20
-118.8399854
11
289.6790234
21
-116.0912591
0
LINE
8
0
10
289.9878692
20
-116.0672688
11
309.7087831
21
-116.0672688
0
LINE
8
0
10
309.9553025
20
-116.0520177
11
350.7248215
21
-110.9881645
0
ARC
8
0
10
357.4555121
20
-59.3579859
40
2
50
352.0000003
51
59.4163677
0
ARC
8
0
10
338.4042154
20
-48.0984247
40
2
50
59.4163677
51
71.4053562
0
ARC
8
0
10
317.5050981
20
-41.0672688
40
2
50
71.4053562
51
90
0
ARC
8
0
10
298.019748
20
-41.0672688
40
2
50
90
51
100.6965122
0
ARC
8
0
10
279.5522828
20
-40.4848352
40
2
50
275.395263
51
280.6965122
0
ARC
8
0
10
261.7382795
20
-42.1672688
40
2
50
270
51
275.395263
0
ARC
8
0
10
238.0525145
20
-46.1672688
40
2
50
90
51
180
0
ARC
8
0
10
234.0525145
20
-109.2071505
40
2
50
308.7124786
51
0
0
ARC
8
0
10
233.3913425
20
-114.863357
40
2
50
128.7124786
51
203.9999968
0
ARC
8
0
10
239.6682468
20
-128.9615148
40
2
50
203.9999968
51
294.7118143
0
ARC
8
0
10
255.5370364
20
-126.0619617
40
2
50
107.2792696
51
114.7118143
0
ARC
8
0
10
272.401386
20
-120.815995
40
2
50
98.8833283
51
107.2792696
0
ARC
8
0
10
289.9878692
20
-118.0672688
40
2
50
90
51
98.8833283
0
ARC
8
0
10
309.7087831
20
-114.0672688
40
2
50
270
51
277.0802671
0
ARC
8
0
10
350.4783021
20
-109.0034156
40
2
50
277.0802671
51
352.0000003
0
LINE
8
0
10
92.6961062
20
-109.1051159
11
109.5306634
21
-106.7391732
0
LINE
8
0
10
109.5306634
20
-106.7391732
11
107.3038938
21
-90.8948841
0
LINE
8
0
10
107.3038938
20
-90.8948841
11
90.4693366
21
-93.2608268
0
LINE
8
0
10
90.4693366
20
-93.2608268
11
92.6961062
21
-109.1051159
0
LINE
8
0
10
90.3301635
20
-92.2705587
11
107.1647207
21
-89.904616
0
LINE
8
0
10
107.1647207
20
-89.904616
11
104.9379511
21
-74.0603269
0
LINE
8
0
10
104.9379511
20
-74.0603269
11
88.1033939
21
-76.4262696
0
LINE
8
0
10
88.1033939
20
-76.4262696
11
90.3301635
21
-92.2705587
0
LINE
8
0
10
87.9642208
20
-75.4360015
11
104.798778
21
-73.0700588
0
LINE
8
0
10
104.798778
20
-73.0700588
11
102.5720084
21
-57.2257697
0
LINE
8
0
10
102.5720084
20
-57.2257697
11
85.7374512
21
-59.5917124
0
LINE
8
0
10
85.7374512
20
-59.5917124
11
87.9642208
21
-75.4360015
0
LINE
8
0
10
109.5128257
20
-97.5397095
11
126.4714145
21
-96.3538495
0
LINE
8
0
10
126.4714145
20
-96.3538495
11
125.3553109
21
-80.3928247
0
LINE
8
0
10
125.3553109
20
-80.3928247
11
108.3967221
21
-81.5786847
0
LINE
8
0
10
108.3967221
20
-81.5786847
11
109.5128257
21
-97.5397095
0
LINE
8
0
10
108.3269656
20
-80.5811206
11
125.2855544
21
-79.3952606
0
LINE
8
0
10
125.2855544
20
-79.3952606
11
124.1694508
21
-63.4342358
0
LINE
8
0
10
124.1694508
20
-63.4342358
11
107.210862
21
-64.6200958
0
LINE
8
0
10
107.210862
20
-64.6200958
11
108.3269656
21
-80.5811206
0
LINE
8
0
10
107.1411055
20
-63.6225317
11
124.0996943
21
-62.4366717
0
LINE
8
0
10
124.0996943
20
-62.4366717
11
122.9835907
21
-46.4756469
0
LINE
8
0
10
122.9835907
20
-46.4756469
11
106.0250019
21
-47.6615069
0
LINE
8
0
10
106.0250019
20
-47.6615069
11
107.1411055
21
-63.6225317
0
LINE
8
0
10
127.3325144
20
-90.5672688
11
144.3325144
21
-90.5672688
0
LINE
8
0
10
144.3325144
20
-90.5672688
11
144.3325144
21
-74.5672688
0
LINE
8
0
10
144.3325144
20
-74.5672688
11
127.3325144
21
-74.5672688
0
LINE
8
0
10
127.3325144
20
-74.5672688
11
127.3325144
21
-90.5672688
0
LINE
8
0
10
127.3325144
20
-73.5672688
11
144.3325144
21
-73.5672688
0
LINE
8
0
10
144.3325144
20
-73.5672688
11
144.3325144
21
-57.5672688
0
LINE
8
0
10
144.3325144
20
-57.5672688
11
127.3325144
21
-57.5672688
0
LINE
8
0
10
127.3325144
20
-57.5672688
11
127.3325144
21
-73.5672688
0
LINE
8
0
10
127.3325144
20
-56.5672688
11
144.3325144
21
-56.5672688
0
LINE
8
0
10
144.3325144
20
-56.5672688
11
144.3325144
21
-40.5672688
0
LINE
8
0
10
144.3325144
20
-40.5672688
11
127.3325144
21
-40.5672688
0
LINE
8
0
10
127.3325144
20
-40.5672688
11
127.3325144
21
-56.5672688
0
LINE
8
0
10
145.3325145
20
-93.9672688
11
162.3325145
21
-93.9672688
0
LINE
8
0
10
162.3325145
20
-93.9672688
11
162.3325145
21
-77.9672688
0
LINE
8
0
10
162.3325145
20
-77.9672688
11
145.3325145
21
-77.9672688
0
LINE
8
0
10
145.3325145
20
-77.9672688
11
145.3325145
21
-93.9672688
0
LINE
8
0
10
145.3325145
20
-76.9672688
11
162.3325145
21
-76.9672688
0
LINE
8
0
10
162.3325145
20
-76.9672688
11
162.3325145
21
-60.9672688
0
LINE
8
0
10
162.3325145
20
-60.9672688
11
145.3325145
21
-60.9672688
0
LINE
8
0
10
145.3325145
20
-60.9672688
11
145.3325145
21
-76.9672688
0
LINE
8
0
10
145.3325145
20
-59.9672688
11
162.3325145
21
-59.9672688
0
LINE
8
0
10
162.3325145
20
-59.9672688
11
162.3325145
21
-43.9672688
0
LINE
8
0
10
162.3325145
20
-43.9672688
11
145.3325145
21
-43.9672688
0
LINE
8
0
10
145.3325145
20
-43.9672688
11
145.3325145
21
-59.9672688
0
LINE
8
0
10
163.3325145
20
-95.6672688
11
180.3325145
21
-95.6672688
0
LINE
8
0
10
180.3325145
20
-95.6672688
11
180.3325145
21
-79.6672688
0
LINE
8
0
10
180.3325145
20
-79.6672688
11
163.3325145
21
-79.6672688
0
LINE
8
0
10
163.3325145
20
-79.6672688
11
163.3325145
21
-95.6672688
0
LINE
8
0
10
163.3325145
20
-78.6672688
11
180.3325145
21
-78.6672688
0
LINE
8
0
10
180.3325145
20
-78.6672688
11
180.3325145
21
-62.6672688
0
LINE
8
0
10
180.3325145
20
-62.6672688
11
163.3325145
21
-62.6672688
0
LINE
8
0
10
163.3325145
20
-62.6672688
11
163.3325145
21
-78.6672688
0
LINE
8
0
10
163.3325145
20
-61.6672688
11
180.3325145
21
-61.6672688
0
LINE
8
0
10
180.3325145
20
-61.6672688
11
180.3325145
21
-45.6672688
0
LINE
8
0
10
180.3325145
20
-45.6672688
11
163.3325145
21
-45.6672688
0
LINE
8
0
10
163.3325145
20
-45.6672688
11
163.3325145
21
-61.6672688
0
LINE
8
0
10
135.3325144
20
-114.5672688
11
152.3325144
21
-114.5672688
0
LINE
8
0
10
152.3325144
20
-114.5672688
11
152.3325144
21
-98.5672688
0
LINE
8
0
10
152.3325144
20
-98.5672688
11
135.3325144
21
-98.5672688
0
LINE
8
0
10
135.3325144
20
-98.5672688
11
135.3325144
21
-114.5672688
0
LINE
8
0
10
153.6063281
20
-114.8025501
11
170.4408853
21
-117.1684928
0
LINE
8
0
10
170.4408853
20
-117.1684928
11
172.6676549
21
-101.3242037
0
LINE
8
0
10
172.6676549
20
-101.3242037
11
155.8330977
21
-98.958261
0
LINE
8
0
10
155.8330977
20
-98.958261
11
153.6063281
21
-114.8025501
0
LINE
8
0
10
171.476208
20
-117.6496269
11
187.8176569
21
-122.335462
0
LINE
8
0
10
187.8176569
20
-122.335462
11
192.2278546
21
-106.9552749
0
LINE
8
0
10
192.2278546
20
-106.9552749
11
175.8864057
21
-102.2694398
0
LINE
8
0
10
175.8864057
20
-102.2694398
11
171.476208
21
-117.6496269
0
LINE
8
0
10
188.7097443
20
-122.7299741
11
204.240017
21
-129.644497
0
LINE
8
0
10
204.240017
20
-129.644497
11
210.7478033
21
-115.0277697
0
LINE
8
0
10
210.7478033
20
-115.0277697
11
195.2175306
21
-108.1132468
0
LINE
8
0
10
195.2175306
20
-108.1132468
11
188.7097443
21
-122.7299741
0
LINE
8
0
10
334.1343656
20
-106.7391732
11
350.9689228
21
-109.1051159
0
LINE
8
0
10
350.9689228
20
-109.1051159
11
353.1956924
21
-93.2608268
0
LINE
8
0
10
353.1956924
20
-93.2608268
11
336.3611352
21
-90.8948841
0
LINE
8
0
10
336.3611352
20
-90.8948841
11
334.1343656
21
-106.7391732
0
LINE
8
0
10
336.5003083
20
-89.904616
11
353.3348655
21
-92.2705587
0
LINE
8
0
10
353.3348655
20
-92.2705587
11
355.5616351
21
-76.4262696
0
LINE
8
0
10
355.5616351
20
-76.4262696
11
338.7270779
21
-74.0603269
0
LINE
8
0
10
338.7270779
20
-74.0603269
11
336.5003083
21
-89.904616
0
LINE
8
0
10
338.866251
20
-73.0700588
11
355.7008082
21
-75.4360015
0
LINE
8
0
10
355.7008082
20
-75.4360015
11
357.9275778
21
-59.5917124
0
LINE
8
0
10
357.9275778
20
-59.5917124
11
341.0930206
21
-57.2257697
0
LINE
8
0
10
341.0930206
20
-57.2257697
11
338.866251
21
-73.0700588
0
LINE
8
0
10
317.1936145
20
-96.3538495
11
334.1522033
21
-97.5397095
0
LINE
8
0
10
334.1522033
20
-97.5397095
11
335.2683069
21
-81.5786847
0
LINE
8
0
10
335.2683069
20
-81.5786847
11
318.3097181
21
-80.3928247
0
LINE
8
0
10
318.3097181
20
-80.3928247
11
317.1936145
21
-96.3538495
0
LINE
8
0
10
318.3794746
20
-79.3952606
11
335.3380634
21
-80.5811206
0
LINE
8
0
10
335.3380634
20
-80.5811206
11
336.454167
21
-64.6200958
0
LINE
8
0
10
336.454167
20
-64.6200958
11
319.4955782
21
-63.4342358
0
LINE
8
0
10
319.4955782
20
-63.4342358
11
318.3794746
21
-79.3952606
0
LINE
8
0
10
319.5653347
20
-62.4366717
11
336.5239235
21
-63.6225317
0
LINE
8
0
10
336.5239235
20
-63.6225317
11
337.6400271
21
-47.6615069
0
LINE
8
0
10
337.6400271
20
-47.6615069
11
320.6814383
21
-46.4756469
0
LINE
8
0
10
320.6814383
20
-46.4756469
11
319.5653347
21
-62.4366717
0
LINE
8
0
10
299.3325146
20
-90.5672688
11
316.3325146
21
-90.5672688
0
LINE
8
0
10
316.3325146
20
-90.5672688
11
316.3325146
21
-74.5672688
0
LINE
8
0
10
316.3325146
20
-74.5672688
11
299.3325146
21
-74.5672688
0
LINE
8
0
10
299.3325146
20
-74.5672688
11
299.3325146
21
-90.5672688
0
LINE
8
0
10
299.3325146
20
-73.5672688
11
316.3325146
21
-73.5672688
0
LINE
8
0
10
316.3325146
20
-73.5672688
11
316.3325146
21
-57.5672688
0
LINE
8
0
10
316.3325146
20
-57.5672688
11
299.3325146
21
-57.5672688
0
LINE
8
0
10
299.3325146
20
-57.5672688
11
299.3325146
21
-73.5672688
0
LINE
8
0
10
299.3325146
20
-56.5672688
11
316.3325146
21
-56.5672688
0
LINE
8
0
10
316.3325146
20
-56.5672688
11
316.3325146
21
-40.5672688
0
LINE
8
0
10
316.3325146
20
-40.5672688
11
299.3325146
21
-40.5672688
0
LINE
8
0
10
299.3325146
20
-40.5672688
11
299.3325146
21
-56.5672688
0
LINE
8
0
10
281.3325145
20
-93.9672688
11
298.3325145
21
-93.9672688
0
LINE
8
0
10
298.3325145
20
-93.9672688
11
298.3325145
21
-77.9672688
0
LINE
8
0
10
298.3325145
20
-77.9672688
11
281.3325145
21
-77.9672688
0
LINE
8
0
10
281.3325145
20
-77.9672688
11
281.3325145
21
-93.9672688
0
LINE
8
0
10
281.3325145
20
-76.9672688
11
298.3325145
21
-76.9672688
0
LINE
8
0
10
298.3325145
20
-76.9672688
11
298.3325145
21
-60.9672688
0
LINE
8
0
10
298.3325145
20
-60.9672688
11
281.3325145
21
-60.9672688
0
LINE
8
0
10
281.3325145
20
-60.9672688
11
281.3325145
21
-76.9672688
0
LINE
8
0
10
281.3325145
20
-59.9672688
11
298.3325145
21
-59.9672688
0
LINE
8
0
10
298.3325145
20
-59.9672688
11
298.3325145
21
-43.9672688
0
LINE
8
0
10
298.3325145
20
-43.9672688
11
281.3325145
21
-43.9672688
0
LINE
8
0
10
281.3325145
20
-43.9672688
11
281.3325145
21
-59.9672688
0
LINE
8
0
10
263.3325145
20
-95.6672688
11
280.3325145
21
-95.6672688
0
LINE
8
0
10
280.3325145
20
-95.6672688
11
280.3325145
21
-79.6672688
0
LINE
8
0
10
280.3325145
20
-79.6672688
11
263.3325145
21
-79.6672688
0
LINE
8
0
10
263.3325145
20
-79.6672688
11
263.3325145
21
-95.6672688
0
LINE
8
0
10
263.3325145
20
-78.6672688
11
280.3325145
21
-78.6672688
0
LINE
8
0
10
280.3325145
20
-78.6672688
11
280.3325145
21
-62.6672688
0
LINE
8
0
10
280.3325145
20
-62.6672688
11
263.3325145
21
-62.6672688
0
LINE
8
0
10
263.3325145
20
-62.6672688
11
263.3325145
21
-78.6672688
0
LINE
8
0
10
263.3325145
20
-61.6672688
11
280.3325145
21
-61.6672688
0
LINE
8
0
10
280.3325145
20
-61.6672688
11
280.3325145
21
-45.6672688
0
LINE
8
0
10
280.3325145
20
-45.6672688
11
263.3325145
21
-45.6672688
0
LINE
8
0
10
263.3325145
20
-45.6672688
11
263.3325145
21
-61.6672688
0
LINE
8
0
10
291.3325146
20
-114.5672688
11
308.3325146
21
-114.5672688
0
LINE
8
0
10
308.3325146
20
-114.5672688
11
308.3325146
21
-98.5672688
0
LINE
8
0
10
308.3325146
20
-98.5672688
11
291.3325146
21
-98.5672688
0
LINE
8
0
10
291.3325146
20
-98.5672688
11
291.3325146
21
-114.5672688
0
LINE
8
0
10
273.2241437
20
-117.1684928
11
290.0587009
21
-114.8025501
0
LINE
8
0
10
290.0587009
20
-114.8025501
11
287.8319313
21
-98.958261
0
LINE
8
0
10
287.8319313
20
-98.958261
11
270.9973741
21
-101.3242037
0
LINE
8
0
10
270.9973741
20
-101.3242037
11
273.2241437
21
-117.1684928
0
LINE
8
0
10
255.8473721
20
-122.335462
11
272.188821
21
-117.6496269
0
LINE
8
0
10
272.188821
20
-117.6496269
11
267.7786233
21
-102.2694398
0
LINE
8
0
10
267.7786233
20
-102.2694398
11
251.4371744
21
-106.9552749
0
LINE
8
0
10
251.4371744
20
-106.9552749
11
255.8473721
21
-122.335462
0
LINE
8
0
10
239.425012
20
-129.644497
11
254.9552847
21
-122.7299741
0
LINE
8
0
10
254.9552847
20
-122.7299741
11
248.4474984
21
-108.1132468
0
LINE
8
0
10
248.4474984
20
-108.1132468
11
232.9172257
21
-115.0277697
0
LINE
8
0
10
232.9172257
20
-115.0277697
11
239.425012
21
-129.644497
0
ENDSEC
0
EOF