0
SECTION
2
HEADER
9
$INSUNITS
70
4
0
ENDSEC
0
SECTION
2
TABLES
0
TABLE
2
LTYPE
0
LTYPE
72
65
70
64
2
CONTINUOUS
3
______
73
0
40
0
0
ENDTAB
0
TABLE
2
LAYER
0
ENDTAB
0
ENDSEC
0
SECTION
2
ENTITIES
0
LINE
8
0
10
92.6961062
20
-109.1051159
11
109.5306634
21
-106.7391732
0
LINE
8
0
10
109.5306634
20
-106.7391732
11
107.3038938
21
-90.8948841
0
LINE
8
0
10
107.3038938
20
-90.8948841
11
90.4693366
21
-93.2608268
0
LINE
8
0
10
90.4693366
20
-93.2608268
11
92.6961062
21
-109.1051159
0
LINE
8
0
10
90.3301635
20
-92.2705587
11
107.1647207
21
-89.904616
0
LINE
8
0
10
107.1647207
20
-89.904616
11
104.9379511
21
-74.0603269
0
LINE
8
0
10
104.9379511
20
-74.0603269
11
88.1033939
21
-76.4262696
0
LINE
8
0
10
88.1033939
20
-76.4262696
11
90.3301635
21
-92.2705587
0
LINE
8
0
10
87.9642208
20
-75.4360015
11
104.798778
21
-73.0700588
0
LINE
8
0
10
104.798778
20
-73.0700588
11
102.5720084
21
-57.2257697
0
LINE
8
0
10
102.5720084
20
-57.2257697
11
85.7374512
21
-59.5917124
0
LINE
8
0
10
85.7374512
20
-59.5917124
11
87.9642208
21
-75.4360015
0
LINE
8
0
10
109.5128257
20
-97.5397095
11
126.4714145
21
-96.3538495
0
LINE
8
0
10
126.4714145
20
-96.3538495
11
125.3553109
21
-80.3928247
0
LINE
8
0
10
125.3553109
20
-80.3928247
11
108.3967221
21
-81.5786847
0
LINE
8
0
10
108.3967221
20
-81.5786847
11
109.5128257
21
-97.5397095
0
LINE
8
0
10
108.3269656
20
-80.5811206
11
125.2855544
21
-79.3952606
0
LINE
8
0
10
125.2855544
20
-79.3952606
11
124.1694508
21
-63.4342358
0
LINE
8
0
10
124.1694508
20
-63.4342358
11
107.210862
21
-64.6200958
0
LINE
8
0
10
107.210862
20
-64.6200958
11
108.3269656
21
-80.5811206
0
LINE
8
0
10
107.1411055
20
-63.6225317
11
124.0996943
21
-62.4366717
0
LINE
8
0
10
124.0996943
20
-62.4366717
11
122.9835907
21
-46.4756469
0
LINE
8
0
10
122.9835907
20
-46.4756469
11
106.0250019
21
-47.6615069
0
LINE
8
0
10
106.0250019
20
-47.6615069
11
107.1411055
21
-63.6225317
0
LINE
8
0
10
127.3325144
20
-90.5672688
11
144.3325144
21
-90.5672688
0
LINE
8
0
10
144.3325144
20
-90.5672688
11
144.3325144
21
-74.5672688
0
LINE
8
0
10
144.3325144
20
-74.5672688
11
127.3325144
21
-74.5672688
0
LINE
8
0
10
127.3325144
20
-74.5672688
11
127.3325144
21
-90.5672688
0
LINE
8
0
10
127.3325144
20
-73.5672688
11
144.3325144
21
-73.5672688
0
LINE
8
0
10
144.3325144
20
-73.5672688
11
144.3325144
21
-57.5672688
0
LINE
8
0
10
144.3325144
20
-57.5672688
11
127.3325144
21
-57.5672688
0
LINE
8
0
10
127.3325144
20
-57.5672688
11
127.3325144
21
-73.5672688
0
LINE
8
0
10
127.3325144
20
-56.5672688
11
144.3325144
21
-56.5672688
0
LINE
8
0
10
144.3325144
20
-56.5672688
11
144.3325144
21
-40.5672688
0
LINE
8
0
10
144.3325144
20
-40.5672688
11
127.3325144
21
-40.5672688
0
LINE
8
0
10
127.3325144
20
-40.5672688
11
127.3325144
21
-56.5672688
0
LINE
8
0
10
145.3325145
20
-93.9672688
11
162.3325145
21
-93.9672688
0
LINE
8
0
10
162.3325145
20
-93.9672688
11
162.3325145
21
-77.9672688
0
LINE
8
0
10
162.3325145
20
-77.9672688
11
145.3325145
21
-77.9672688
0
LINE
8
0
10
145.3325145
20
-77.9672688
11
145.3325145
21
-93.9672688
0
LINE
8
0
10
145.3325145
20
-76.9672688
11
162.3325145
21
-76.9672688
0
LINE
8
0
10
162.3325145
20
-76.9672688
11
162.3325145
21
-60.9672688
0
LINE
8
0
10
162.3325145
20
-60.9672688
11
145.3325145
21
-60.9672688
0
LINE
8
0
10
145.3325145
20
-60.9672688
11
145.3325145
21
-76.9672688
0
LINE
8
0
10
145.3325145
20
-59.9672688
11
162.3325145
21
-59.9672688
0
LINE
8
0
10
162.3325145
20
-59.9672688
11
162.3325145
21
-43.9672688
0
LINE
8
0
10
162.3325145
20
-43.9672688
11
145.3325145
21
-43.9672688
0
LINE
8
0
10
145.3325145
20
-43.9672688
11
145.3325145
21
-59.9672688
0
LINE
8
0
10
163.3325145
20
-95.6672688
11
180.3325145
21
-95.6672688
0
LINE
8
0
10
180.3325145
20
-95.6672688
11
180.3325145
21
-79.6672688
0
LINE
8
0
10
180.3325145
20
-79.6672688
11
163.3325145
21
-79.6672688
0
LINE
8
0
10
163.3325145
20
-79.6672688
11
163.3325145
21
-95.6672688
0
LINE
8
0
10
163.3325145
20
-78.6672688
11
180.3325145
21
-78.6672688
0
LINE
8
0
10
180.3325145
20
-78.6672688
11
180.3325145
21
-62.6672688
0
LINE
8
0
10
180.3325145
20
-62.6672688
11
163.3325145
21
-62.6672688
0
LINE
8
0
10
163.3325145
20
-62.6672688
11
163.3325145
21
-78.6672688
0
LINE
8
0
10
163.3325145
20
-61.6672688
11
180.3325145
21
-61.6672688
0
LINE
8
0
10
180.3325145
20
-61.6672688
11
180.3325145
21
-45.6672688
0
LINE
8
0
10
180.3325145
20
-45.6672688
11
163.3325145
21
-45.6672688
0
LINE
8
0
10
163.3325145
20
-45.6672688
11
163.3325145
21
-61.6672688
0
LINE
8
0
10
135.3325144
20
-114.5672688
11
152.3325144
21
-114.5672688
0
LINE
8
0
10
152.3325144
20
-114.5672688
11
152.3325144
21
-98.5672688
0
LINE
8
0
10
152.3325144
20
-98.5672688
11
135.3325144
21
-98.5672688
0
LINE
8
0
10
135.3325144
20
-98.5672688
11
135.3325144
21
-114.5672688
0
LINE
8
0
10
153.6063281
20
-114.8025501
11
170.4408853
21
-117.1684928
0
LINE
8
0
10
170.4408853
20
-117.1684928
11
172.6676549
21
-101.3242037
0
LINE
8
0
10
172.6676549
20
-101.3242037
11
155.8330977
21
-98.958261
0
LINE
8
0
10
155.8330977
20
-98.958261
11
153.6063281
21
-114.8025501
0
LINE
8
0
10
171.476208
20
-117.6496269
11
187.8176569
21
-122.335462
0
LINE
8
0
10
187.8176569
20
-122.335462
11
192.2278546
21
-106.9552749
0
LINE
8
0
10
192.2278546
20
-106.9552749
11
175.8864057
21
-102.2694398
0
LINE
8
0
10
175.8864057
20
-102.2694398
11
171.476208
21
-117.6496269
0
LINE
8
0
10
188.7097443
20
-122.7299741
11
204.240017
21
-129.644497
0
LINE
8
0
10
204.240017
20
-129.644497
11
210.7478033
21
-115.0277697
0
LINE
8
0
10
210.7478033
20
-115.0277697
11
195.2175306
21
-108.1132468
0
LINE
8
0
10
195.2175306
20
-108.1132468
11
188.7097443
21
-122.7299741
0
LINE
8
0
10
334.1343656
20
-106.7391732
11
350.9689228
21
-109.1051159
0
LINE
8
0
10
350.9689228
20
-109.1051159
11
353.1956924
21
-93.2608268
0
LINE
8
0
10
353.1956924
20
-93.2608268
11
336.3611352
21
-90.8948841
0
LINE
8
0
10
336.3611352
20
-90.8948841
11
334.1343656
21
-106.7391732
0
LINE
8
0
10
336.5003083
20
-89.904616
11
353.3348655
21
-92.2705587
0
LINE
8
0
10
353.3348655
20
-92.2705587
11
355.5616351
21
-76.4262696
0
LINE
8
0
10
355.5616351
20
-76.4262696
11
338.7270779
21
-74.0603269
0
LINE
8
0
10
338.7270779
20
-74.0603269
11
336.5003083
21
-89.904616
0
LINE
8
0
10
338.866251
20
-73.0700588
11
355.7008082
21
-75.4360015
0
LINE
8
0
10
355.7008082
20
-75.4360015
11
357.9275778
21
-59.5917124
0
LINE
8
0
10
357.9275778
20
-59.5917124
11
341.0930206
21
-57.2257697
0
LINE
8
0
10
341.0930206
20
-57.2257697
11
338.866251
21
-73.0700588
0
LINE
8
0
10
317.1936145
20
-96.3538495
11
334.1522033
21
-97.5397095
0
LINE
8
0
10
334.1522033
20
-97.5397095
11
335.2683069
21
-81.5786847
0
LINE
8
0
10
335.2683069
20
-81.5786847
11
318.3097181
21
-80.3928247
0
LINE
8
0
10
318.3097181
20
-80.3928247
11
317.1936145
21
-96.3538495
0
LINE
8
0
10
318.3794746
20
-79.3952606
11
335.3380634
21
-80.5811206
0
LINE
8
0
10
335.3380634
20
-80.5811206
11
336.454167
21
-64.6200958
0
LINE
8
0
10
336.454167
20
-64.6200958
11
319.4955782
21
-63.4342358
0
LINE
8
0
10
319.4955782
20
-63.4342358
11
318.3794746
21
-79.3952606
0
LINE
8
0
10
319.5653347
20
-62.4366717
11
336.5239235
21
-63.6225317
0
LINE
8
0
10
336.5239235
20
-63.6225317
11
337.6400271
21
-47.6615069
0
LINE
8
0
10
337.6400271
20
-47.6615069
11
320.6814383
21
-46.4756469
0
LINE
8
0
10
320.6814383
20
-46.4756469
11
319.5653347
21
-62.4366717
0
LINE
8
0
10
299.3325146
20
-90.5672688
11
316.3325146
21
-90.5672688
0
LINE
8
0
10
316.3325146
20
-90.5672688
11
316.3325146
21
-74.5672688
0
LINE
8
0
10
316.3325146
20
-74.5672688
11
299.3325146
21
-74.5672688
0
LINE
8
0
10
299.3325146
20
-74.5672688
11
299.3325146
21
-90.5672688
0
LINE
8
0
10
299.3325146
20
-73.5672688
11
316.3325146
21
-73.5672688
0
LINE
8
0
10
316.3325146
20
-73.5672688
11
316.3325146
21
-57.5672688
0
LINE
8
0
10
316.3325146
20
-57.5672688
11
299.3325146
21
-57.5672688
0
LINE
8
0
10
299.3325146
20
-57.5672688
11
299.3325146
21
-73.5672688
0
LINE
8
0
10
299.3325146
20
-56.5672688
11
316.3325146
21
-56.5672688
0
LINE
8
0
10
316.3325146
20
-56.5672688
11
316.3325146
21
-40.5672688
0
LINE
8
0
10
316.3325146
20
-40.5672688
11
299.3325146
21
-40.5672688
0
LINE
8
0
10
299.3325146
20
-40.5672688
11
299.3325146
21
-56.5672688
0
LINE
8
0
10
281.3325145
20
-93.9672688
11
298.3325145
21
-93.9672688
0
LINE
8
0
10
298.3325145
20
-93.9672688
11
298.3325145
21
-77.9672688
0
LINE
8
0
10
298.3325145
20
-77.9672688
11
281.3325145
21
-77.9672688
0
LINE
8
0
10
281.3325145
20
-77.9672688
11
281.3325145
21
-93.9672688
0
LINE
8
0
10
281.3325145
20
-76.9672688
11
298.3325145
21
-76.9672688
0
LINE
8
0
10
298.3325145
20
-76.9672688
11
298.3325145
21
-60.9672688
0
LINE
8
0
10
298.3325145
20
-60.9672688
11
281.3325145
21
-60.9672688
0
LINE
8
0
10
281.3325145
20
-60.9672688
11
281.3325145
21
-76.9672688
0
LINE
8
0
10
281.3325145
20
-59.9672688
11
298.3325145
21
-59.9672688
0
LINE
8
0
10
298.3325145
20
-59.9672688
11
298.3325145
21
-43.9672688
0
LINE
8
0
10
298.3325145
20
-43.9672688
11
281.3325145
21
-43.9672688
0
LINE
8
0
10
281.3325145
20
-43.9672688
11
281.3325145
21
-59.9672688
0
LINE
8
0
10
263.3325145
20
-95.6672688
11
280.3325145
21
-95.6672688
0
LINE
8
0
10
280.3325145
20
-95.6672688
11
280.3325145
21
-79.6672688
0
LINE
8
0
10
280.3325145
20
-79.6672688
11
263.3325145
21
-79.6672688
0
LINE
8
0
10
263.3325145
20
-79.6672688
11
263.3325145
21
-95.6672688
0
LINE
8
0
10
263.3325145
20
-78.6672688
11
280.3325145
21
-78.6672688
0
LINE
8
0
10
280.3325145
20
-78.6672688
11
280.3325145
21
-62.6672688
0
LINE
8
0
10
280.3325145
20
-62.6672688
11
263.3325145
21
-62.6672688
0
LINE
8
0
10
263.3325145
20
-62.6672688
11
263.3325145
21
-78.6672688
0
LINE
8
0
10
263.3325145
20
-61.6672688
11
280.3325145
21
-61.6672688
0
LINE
8
0
10
280.3325145
20
-61.6672688
11
280.3325145
21
-45.6672688
0
LINE
8
0
10
280.3325145
20
-45.6672688
11
263.3325145
21
-45.6672688
0
LINE
8
0
10
263.3325145
20
-45.6672688
11
263.3325145
21
-61.6672688
0
LINE
8
0
10
291.3325146
20
-114.5672688
11
308.3325146
21
-114.5672688
0
LINE
8
0
10
308.3325146
20
-114.5672688
11
308.3325146
21
-98.5672688
0
LINE
8
0
10
308.3325146
20
-98.5672688
11
291.3325146
21
-98.5672688
0
LINE
8
0
10
291.3325146
20
-98.5672688
11
291.3325146
21
-114.5672688
0
LINE
8
0
10
273.2241437
20
-117.1684928
11
290.0587009
21
-114.8025501
0
LINE
8
0
10
290.0587009
20
-114.8025501
11
287.8319313
21
-98.958261
0
LINE
8
0
10
287.8319313
20
-98.958261
11
270.9973741
21
-101.3242037
0
LINE
8
0
10
270.9973741
20
-101.3242037
11
273.2241437
21
-117.1684928
0
LINE
8
0
10
255.8473721
20
-122.335462
11
272.188821
21
-117.6496269
0
LINE
8
0
10
272.188821
20
-117.6496269
11
267.7786233
21
-102.2694398
0
LINE
8
0
10
267.7786233
20
-102.2694398
11
251.4371744
21
-106.9552749
0
LINE
8
0
10
251.4371744
20
-106.9552749
11
255.8473721
21
-122.335462
0
LINE
8
0
10
239.425012
20
-129.644497
11
254.9552847
21
-122.7299741
0
LINE
8
0
10
254.9552847
20
-122.7299741
11
248.4474984
21
-108.1132468
0
LINE
8
0
10
248.4474984
20
-108.1132468
11
232.9172257
21
-115.0277697
0
LINE
8
0
10
232.9172257
20
-115.0277697
11
239.425012
21
-129.644497
0
ENDSEC
0
EOF