0
SECTION
2
HEADER
9
$INSUNITS
70
4
0
ENDSEC
0
SECTION
2
TABLES
0
TABLE
2
LTYPE
0
LTYPE
72
65
70
64
2
CONTINUOUS
3
______
73
0
40
0
0
ENDTAB
0
TABLE
2
LAYER
0
ENDTAB
0
ENDSEC
0
SECTION
2
ENTITIES
0
LINE
8
0
10
92.2705587
20
-109.6698365
11
110.095384
21
-107.1647207
0
LINE
8
0
10
102.9975559
20
-56.6610491
11
110.095384
21
-107.1647207
0
LINE
8
0
10
85.1727306
20
-59.1661649
11
92.2705587
21
-109.6698365
0
LINE
8
0
10
102.9975559
20
-56.6610491
11
85.1727306
21
-59.1661649
0
LINE
8
0
10
109.0489219
20
-98.0733698
11
127.0050748
21
-96.8177533
0
LINE
8
0
10
123.4474945
20
-45.9419866
11
127.0050748
21
-96.8177533
0
LINE
8
0
10
105.4913416
20
-47.1976031
11
109.0489219
21
-98.0733698
0
LINE
8
0
10
123.4474945
20
-45.9419866
11
105.4913416
21
-47.1976031
0
LINE
8
0
10
126.8325144
20
-91.0672688
11
144.8325144
21
-91.0672688
0
LINE
8
0
10
144.8325144
20
-91.0672688
11
144.8325144
21
-40.0672688
0
LINE
8
0
10
126.8325144
20
-91.0672688
11
126.8325144
21
-40.0672688
0
LINE
8
0
10
144.8325144
20
-40.0672688
11
126.8325144
21
-40.0672688
0
LINE
8
0
10
144.8325145
20
-94.4672688
11
162.8325145
21
-94.4672688
0
LINE
8
0
10
144.8325145
20
-94.4672688
11
144.8325145
21
-43.4672688
0
LINE
8
0
10
162.8325145
20
-45.1672688
11
162.8325145
21
-43.4672688
0
LINE
8
0
10
162.8325145
20
-43.4672688
11
144.8325145
21
-43.4672688
0
LINE
8
0
10
162.8325145
20
-96.1672688
11
180.8325145
21
-96.1672688
0
LINE
8
0
10
180.8325145
20
-96.1672688
11
180.8325145
21
-45.1672688
0
LINE
8
0
10
162.8325145
20
-94.4672688
11
162.8325145
21
-96.1672688
0
LINE
8
0
10
180.8325145
20
-45.1672688
11
162.8325145
21
-45.1672688
0
LINE
8
0
10
134.8325144
20
-115.0672688
11
152.8325144
21
-115.0672688
0
LINE
8
0
10
152.8325144
20
-115.0672688
11
152.8325144
21
-98.0672688
0
LINE
8
0
10
152.8325144
20
-98.0672688
11
134.8325144
21
-98.0672688
0
LINE
8
0
10
134.8325144
20
-98.0672688
11
134.8325144
21
-115.0672688
0
LINE
8
0
10
153.0416075
20
-115.2280976
11
170.8664328
21
-117.7332134
0
LINE
8
0
10
170.8664328
20
-117.7332134
11
173.2323755
21
-100.8986562
0
LINE
8
0
10
173.2323755
20
-100.8986562
11
155.4075502
21
-98.3935404
0
LINE
8
0
10
155.4075502
20
-98.3935404
11
153.0416075
21
-115.2280976
0
LINE
8
0
10
170.8577585
20
-117.9924391
11
188.073789
21
-122.9290564
0
LINE
8
0
10
188.3373223
20
-122.3371509
11
192.8463041
21
-106.6124627
0
LINE
8
0
10
192.8463041
20
-106.6124627
11
175.5435936
21
-101.6509903
0
LINE
8
0
10
175.5435936
20
-101.6509903
11
170.8577585
21
-117.9924391
0
LINE
8
0
10
188.0496032
20
-122.9833785
11
204.4934215
21
-130.3046381
0
LINE
8
0
10
204.4934215
20
-130.3046381
11
211.4079444
21
-114.7743653
0
LINE
8
0
10
211.4079444
20
-114.7743653
11
194.9641261
21
-107.4531057
0
LINE
8
0
10
194.9641261
20
-107.4531057
11
188.3373223
21
-122.3371509
0
LINE
8
0
10
188.073789
20
-122.9290564
11
188.0496032
21
-122.9833785
0
LINE
8
0
10
333.569645
20
-107.1647207
11
351.3944703
21
-109.6698365
0
LINE
8
0
10
351.3944703
20
-109.6698365
11
358.4922984
21
-59.1661649
0
LINE
8
0
10
333.569645
20
-107.1647207
11
340.6674731
21
-56.6610491
0
LINE
8
0
10
358.4922984
20
-59.1661649
11
340.6674731
21
-56.6610491
0
LINE
8
0
10
316.6599542
20
-96.8177533
11
334.6161071
21
-98.0733698
0
LINE
8
0
10
334.6161071
20
-98.0733698
11
338.1736874
21
-47.1976031
0
LINE
8
0
10
316.6599542
20
-96.8177533
11
320.2175345
21
-45.9419866
0
LINE
8
0
10
338.1736874
20
-47.1976031
11
320.2175345
21
-45.9419866
0
LINE
8
0
10
298.8325146
20
-91.0672688
11
316.8325146
21
-91.0672688
0
LINE
8
0
10
316.8325146
20
-91.0672688
11
316.8325146
21
-40.0672688
0
LINE
8
0
10
298.8325146
20
-91.0672688
11
298.8325146
21
-40.0672688
0
LINE
8
0
10
316.8325146
20
-40.0672688
11
298.8325146
21
-40.0672688
0
LINE
8
0
10
280.8325145
20
-94.4672688
11
298.8325145
21
-94.4672688
0
LINE
8
0
10
298.8325145
20
-94.4672688
11
298.8325145
21
-43.4672688
0
LINE
8
0
10
298.8325145
20
-43.4672688
11
280.8325145
21
-43.4672688
0
LINE
8
0
10
280.8325145
20
-43.4672688
11
280.8325145
21
-45.1672688
0
LINE
8
0
10
262.8325145
20
-96.1672688
11
280.8325145
21
-96.1672688
0
LINE
8
0
10
280.8325145
20
-96.1672688
11
280.8325145
21
-94.4672688
0
LINE
8
0
10
262.8325145
20
-96.1672688
11
262.8325145
21
-45.1672688
0
LINE
8
0
10
280.8325145
20
-45.1672688
11
262.8325145
21
-45.1672688
0
LINE
8
0
10
290.8325146
20
-115.0672688
11
308.8325146
21
-115.0672688
0
LINE
8
0
10
308.8325146
20
-115.0672688
11
308.8325146
21
-98.0672688
0
LINE
8
0
10
308.8325146
20
-98.0672688
11
290.8325146
21
-98.0672688
0
LINE
8
0
10
290.8325146
20
-98.0672688
11
290.8325146
21
-115.0672688
0
LINE
8
0
10
272.7985962
20
-117.7332134
11
290.6234215
21
-115.2280976
0
LINE
8
0
10
290.6234215
20
-115.2280976
11
288.2574788
21
-98.3935404
0
LINE
8
0
10
288.2574788
20
-98.3935404
11
270.4326535
21
-100.8986562
0
LINE
8
0
10
270.4326535
20
-100.8986562
11
272.7985962
21
-117.7332134
0
LINE
8
0
10
255.59124
20
-122.9290564
11
272.8072705
21
-117.9924391
0
LINE
8
0
10
272.8072705
20
-117.9924391
11
268.1214354
21
-101.6509903
0
LINE
8
0
10
268.1214354
20
-101.6509903
11
250.8187249
21
-106.6124627
0
LINE
8
0
10
250.8187249
20
-106.6124627
11
255.3277067
21
-122.3371509
0
LINE
8
0
10
239.1716075
20
-130.3046381
11
255.6154258
21
-122.9833785
0
LINE
8
0
10
255.6154258
20
-122.9833785
11
255.59124
21
-122.9290564
0
LINE
8
0
10
255.3277067
20
-122.3371509
11
248.7009029
21
-107.4531057
0
LINE
8
0
10
248.7009029
20
-107.4531057
11
232.2570846
21
-114.7743653
0
LINE
8
0
10
232.2570846
20
-114.7743653
11
239.1716075
21
-130.3046381
0
ENDSEC
0
EOF